<svg xmlns="http://www.w3.org/2000/svg" viewBox="0 0 1000 1000">
<title>sochi</title>
<path d="M 926.1 627.4 L 918.1 630.2 L 909.8 633.3 L 901.6 636.4 L 893.4 639.6 L 885.1 642.8 L 876.8 646.1 L 868.6 649.4 L 860.4 652.7 L 852.3 656.0 L 844.1 659.3 L 835.8 662.7 L 827.7 666.0 L 819.1 669.5 L 810.3 673.1 L 801.8 676.5 L 793.6 679.7 L 785.3 682.8 L 776.9 685.7 L 768.5 688.4 L 759.9 690.8 L 751.2 692.8 L 742.6 694.3 L 733.2 695.4 L 722.6 696.0 L 712.7 696.1 L 704.0 695.7 L 695.1 694.7 L 686.2 693.3 L 677.4 691.5 L 668.7 689.4 L 660.2 686.9 L 651.6 684.1 L 643.2 681.2 L 634.8 678.2 L 626.5 675.0 L 618.1 671.9 L 609.8 668.7 L 601.5 665.4 L 593.2 662.1 L 584.9 658.8 L 576.6 655.6 L 568.3 652.3 L 560.0 649.1 L 551.6 645.8 L 543.3 642.6 L 534.9 639.4 L 526.5 636.3 L 518.2 633.2 L 509.8 630.1 L 501.3 627.0 L 493.5 624.2 L 486.3 621.7 L 478.3 618.9 L 469.7 615.9 L 461.1 612.9 L 452.3 609.7 L 443.2 606.6 L 434.7 603.1 L 427.6 598.3 L 422.7 591.6 L 421.0 583.6 L 422.2 574.5 L 423.6 565.2 L 423.9 556.7 L 423.9 547.9 L 423.0 538.7 L 421.7 529.7 L 420.2 521.1 L 418.1 512.5 L 415.4 504.0 L 412.1 495.8 L 408.1 487.9 L 403.3 480.3 L 397.8 473.3 L 391.6 466.8 L 384.6 461.0 L 377.0 455.9 L 369.3 451.5 L 361.0 448.0 L 352.2 445.5 L 343.2 444.0 L 334.2 443.5 L 325.2 443.8 L 316.2 445.1 L 307.5 447.4 L 299.1 450.9 L 291.1 455.1 L 283.6 460.3 L 276.8 466.1 L 270.6 472.6 L 264.9 480.1 L 260.3 488.3 L 256.8 496.8 L 254.0 505.6 L 252.1 514.6 L 250.8 523.8 L 250.1 533.2 L 249.4 542.4 L 248.4 551.3 L 246.3 560.1 L 242.8 568.1 L 237.5 574.9 L 230.6 580.1 L 222.6 582.8 L 213.3 582.7 L 203.5 581.3 L 194.6 580.2 L 186.0 579.5 L 177.9 578.8 L 169.7 577.9 L 160.9 576.8 L 152.1 575.8 L 143.3 575.0 L 134.4 574.2 L 125.5 573.5 L 116.6 572.8 L 107.7 572.2 L 98.9 571.7 L 89.7 571.2 L 80.0 570.7 L 70.5 570.1 L 61.3 568.8 L 53.0 566.0 L 46.1 561.0 L 41.5 554.0 L 40.0 545.4 L 41.3 535.8 L 43.6 526.5 L 45.5 517.8 L 47.2 509.3 L 49.0 500.8 L 50.9 492.3 L 52.9 483.8 L 55.1 475.2 L 57.6 466.7 L 60.7 458.4 L 64.2 450.2 L 68.3 442.3 L 73.0 434.8 L 78.8 427.1 L 85.0 419.7 L 91.7 413.1 L 98.9 407.0 L 106.3 401.4 L 113.7 397.3 L 121.8 396.0 L 130.7 397.5 L 139.5 400.8 L 147.7 405.0 L 155.5 409.6 L 163.1 414.2 L 170.6 419.0 L 177.1 423.3 L 183.5 427.4 L 190.9 431.9 L 198.6 436.4 L 206.4 440.8 L 214.5 444.9 L 222.9 448.3 L 231.3 450.2 L 239.8 450.3 L 248.2 448.2 L 256.3 444.0 L 263.5 438.1 L 269.8 431.2 L 275.0 423.5 L 279.2 415.2 L 282.3 407.2 L 284.6 399.2 L 286.6 390.6 L 288.4 381.7 L 289.8 372.8 L 291.2 363.9 L 292.8 355.4 L 295.0 344.9 L 297.8 333.6 L 300.8 324.2 L 304.4 316.3 L 309.7 309.8 L 318.2 305.3 L 328.5 303.8 L 338.1 305.2 L 347.1 307.7 L 355.6 310.6 L 363.8 313.7 L 371.9 317.0 L 379.9 320.7 L 387.9 324.7 L 395.4 328.9 L 402.4 333.1 L 409.5 337.5 L 416.9 342.6 L 423.9 348.0 L 430.7 353.8 L 437.4 359.7 L 444.0 365.6 L 450.5 371.6 L 456.9 377.8 L 463.2 384.1 L 469.3 390.5 L 475.3 397.1 L 481.2 403.8 L 487.0 410.6 L 492.5 417.5 L 498.2 425.0 L 503.8 432.6 L 508.9 440.0 L 513.8 447.4 L 518.6 454.9 L 523.3 462.5 L 527.9 470.1 L 532.4 477.8 L 536.9 485.5 L 541.3 493.2 L 545.8 501.0 L 550.3 508.7 L 554.8 516.3 L 559.5 524.0 L 564.2 531.5 L 569.2 538.9 L 574.5 546.0 L 579.7 552.3 L 584.5 557.7 L 590.0 563.4 L 596.6 569.3 L 603.7 575.0 L 610.9 580.3 L 618.5 585.1 L 626.4 589.4 L 634.6 593.1 L 643.4 596.4 L 652.4 599.5 L 661.2 602.5 L 669.3 606.5 L 675.8 612.1 L 678.6 619.8 L 677.4 628.6 L 673.5 637.0 L 669.1 645.0 L 667.0 652.9 L 670.0 660.8 L 677.0 667.9 L 684.9 673.1 L 693.4 676.2 L 702.5 677.6 L 711.7 677.5 L 720.8 676.0 L 729.6 673.5 L 738.2 670.4 L 746.8 666.9 L 755.6 663.6 L 764.2 660.2 L 771.8 655.4 L 777.1 649.1 L 777.9 641.2 L 774.4 631.7 L 770.9 622.3 L 771.1 613.6 L 775.3 605.9 L 782.5 600.3 L 791.2 596.6 L 800.0 593.5 L 808.1 590.3 L 816.2 587.1 L 824.5 583.9 L 832.7 580.8 L 840.9 577.4 L 849.3 573.7 L 857.6 570.1 L 865.8 566.7 L 874.0 563.3 L 882.2 559.9 L 890.4 556.5 L 898.9 552.8 L 907.6 549.5 L 916.1 547.4 L 924.4 547.8 L 932.0 551.7 L 938.4 558.5 L 943.3 566.7 L 947.6 574.9 L 952.0 582.7 L 956.5 590.8 L 959.6 599.2 L 959.2 607.3 L 954.4 614.4 L 946.8 619.9 L 938.3 623.5 L 930.1 626.1 Z" fill="none" stroke="#F0F0F0" stroke-width="10" stroke-linejoin="round" stroke-linecap="round"/>
<path d="M 791.6 680.5 L 783.2 683.6 L 774.8 686.4 L 766.3 689.0 L 757.7 691.3 L 749.0 693.2 L 740.4 694.6 L 730.6 695.6 L 720.0 696.1 L 710.5 696.1 L 701.7 695.5 L 692.8 694.4 L 684.0 692.9 L 675.2 691.0 L 666.6 688.8 L 658.0 686.2 L 649.5 683.4 L 641.1 680.5 L 632.7 677.4 L 624.4 674.2 L 616.1 671.1 L 607.8 667.8 L 599.5 664.6 L 591.1 661.3 L 582.8 658.0 L 574.5 654.8 L 566.2 651.5 L 557.9 648.3 L 549.5 645.0 L 541.2 641.8 L 532.8 638.6 L 524.4 635.5 L 516.1 632.4 L 507.7 629.3 L 499.2 626.2 L 491.7 623.6 L 484.4 621.0" fill="none" stroke="#16A34A" stroke-width="10" stroke-linecap="round"/>
<path d="M 357.7 311.3 L 365.8 314.5 L 373.9 317.9 L 381.9 321.7 L 389.9 325.8 L 397.2 330.0 L 404.1 334.2 L 411.4 338.8 L 418.7 343.9 L 425.6 349.4 L 432.4 355.3 L 439.1 361.1 L 445.7 367.1 L 452.1 373.2 L 458.5 379.4 L 464.7 385.7 L 470.8 392.2 L 476.8 398.7 L 482.7 405.5 L 488.4 412.3 L 493.9 419.3 L 499.6 426.9 L 505.1 434.5 L 510.2 441.8 L 515.0 449.3 L 519.8 456.8 L 524.4 464.4 L 529.0 472.0 L 533.5 479.7 L 538.0 487.4 L 542.4 495.2 L 546.9 502.9 L 551.4 510.6 L 556.0 518.3 L 560.6 525.9 L 565.4 533.3 L 570.5 540.7 L 575.9 547.7 L 580.9 553.7 L 585.8 559.1 L 591.6 564.9 L 598.4 570.8 L 605.5 576.4 L 612.8 581.6 L 620.4 586.2" fill="none" stroke="#16A34A" stroke-width="10" stroke-linecap="round"/>
<circle cx="742.6" cy="694.3" r="9" fill="#16A34A"/>
<circle cx="421.9" cy="589.8" r="9" fill="#DC2626"/>
<circle cx="314.0" cy="445.6" r="9" fill="#16A34A"/>
<circle cx="226.8" cy="581.8" r="9" fill="#C9A84C"/>
<circle cx="41.5" cy="554.0" r="9" fill="#C9A84C"/>
<circle cx="70.5" cy="438.6" r="9" fill="#16A34A"/>
<circle cx="117.6" cy="396.3" r="9" fill="#C9A84C"/>
<circle cx="237.7" cy="450.5" r="9" fill="#C9A84C"/>
<circle cx="268.3" cy="433.0" r="9" fill="#C9A84C"/>
<circle cx="308.0" cy="311.3" r="9" fill="#C9A84C"/>
<circle cx="484.1" cy="407.2" r="9" fill="#16A34A"/>
<circle cx="590.0" cy="563.4" r="9" fill="#16A34A"/>
<circle cx="677.8" cy="615.8" r="9" fill="#DC2626"/>
<circle cx="667.0" cy="652.9" r="9" fill="#DC2626"/>
<circle cx="777.8" cy="647.3" r="9" fill="#DC2626"/>
<circle cx="770.5" cy="617.9" r="9" fill="#DC2626"/>
<circle cx="924.4" cy="547.8" r="9" fill="#C9A84C"/>
<circle cx="959.8" cy="605.3" r="9" fill="#DC2626"/>
<rect x="922.1" y="613.4" width="8" height="28" fill="#E10600"/>
</svg>