<svg xmlns="http://www.w3.org/2000/svg" viewBox="0 0 1000 1000">
<title>spa</title>
<path d="M 185.7 621.6 L 179.0 626.2 L 170.1 632.3 L 161.9 638.0 L 155.9 642.2 L 149.0 646.9 L 141.4 652.1 L 133.9 657.2 L 126.9 662.1 L 117.9 668.2 L 109.4 674.1 L 103.2 678.4 L 96.4 683.0 L 87.9 688.9 L 80.1 694.3 L 72.6 699.3 L 64.1 704.5 L 55.0 708.4 L 45.8 708.0 L 40.4 702.0 L 40.9 693.1 L 43.9 684.8 L 47.8 676.3 L 52.1 667.4 L 56.1 659.4 L 59.8 651.7 L 63.9 643.4 L 68.1 635.1 L 73.0 626.2 L 77.2 618.8 L 82.2 611.1 L 88.6 601.7 L 93.3 595.3 L 97.3 590.0 L 102.9 583.0 L 108.8 576.2 L 115.0 569.5 L 121.3 563.1 L 128.1 556.2 L 135.3 549.1 L 143.0 541.5 L 150.1 534.6 L 155.6 529.2 L 161.5 523.6 L 168.1 517.2 L 174.7 511.0 L 181.1 504.9 L 188.4 498.2 L 195.8 491.4 L 201.9 485.7 L 207.7 479.9 L 213.7 473.3 L 218.8 465.7 L 223.3 456.7 L 227.7 447.8 L 232.9 440.6 L 239.3 434.4 L 246.6 429.5 L 257.2 424.7 L 267.8 420.9 L 274.9 419.3 L 281.6 418.5 L 291.5 416.0 L 302.3 411.4 L 309.9 407.3 L 317.2 402.6 L 325.6 397.1 L 331.4 393.0 L 337.6 388.3 L 346.9 381.0 L 355.4 374.4 L 360.6 370.4 L 366.1 366.2 L 374.6 359.9 L 384.4 352.8 L 391.6 347.7 L 396.7 344.4 L 403.8 339.9 L 412.1 335.1 L 419.9 330.9 L 429.1 326.6 L 439.0 322.3 L 446.6 319.5 L 453.6 317.0 L 462.3 313.9 L 470.9 310.9 L 479.5 307.9 L 488.2 304.8 L 496.4 301.9 L 505.5 298.8 L 517.4 294.6 L 526.3 291.4 L 531.7 289.5 L 541.7 286.0 L 552.5 282.2 L 559.4 279.7 L 566.0 277.4 L 574.3 274.4 L 583.1 271.3 L 591.7 268.2 L 600.0 265.2 L 609.5 261.9 L 620.6 257.9 L 628.4 255.1 L 636.4 252.2 L 648.4 248.0 L 657.7 244.7 L 663.5 242.6 L 669.4 240.5 L 677.4 237.6 L 686.9 234.3 L 697.8 230.5 L 708.3 226.8 L 714.9 224.5 L 721.4 222.1 L 730.5 218.8 L 740.7 215.5 L 750.7 213.1 L 759.2 212.4 L 766.9 214.2 L 775.3 219.1 L 782.2 225.3 L 789.0 229.9 L 797.2 233.2 L 806.3 234.9 L 815.9 233.7 L 824.3 230.7 L 832.0 227.6 L 840.0 224.8 L 848.9 223.2 L 858.3 223.9 L 867.2 226.8 L 874.7 231.4 L 881.7 238.2 L 887.6 245.7 L 892.5 252.6 L 897.3 259.6 L 902.9 267.3 L 909.2 275.8 L 914.8 283.0 L 919.6 289.1 L 925.3 296.3 L 931.0 303.4 L 936.7 310.4 L 943.2 318.6 L 949.7 327.9 L 954.3 335.1 L 957.9 342.6 L 959.9 352.3 L 958.4 360.7 L 953.4 367.1 L 946.1 371.9 L 936.4 372.6 L 927.6 370.2 L 921.2 365.6 L 915.0 359.1 L 909.5 351.4 L 904.5 342.9 L 900.0 334.7 L 895.4 327.1 L 889.2 320.0 L 882.1 314.1 L 874.1 311.0 L 865.2 310.3 L 856.4 311.5 L 846.9 314.6 L 838.7 317.9 L 830.4 321.6 L 820.1 326.1 L 811.7 329.7 L 805.2 332.3 L 796.5 335.4 L 786.8 338.5 L 778.5 340.9 L 770.8 342.9 L 761.9 345.2 L 753.1 347.4 L 744.2 349.5 L 735.5 351.5 L 725.0 353.9 L 714.4 356.3 L 706.4 358.2 L 699.2 359.9 L 691.0 361.9 L 682.2 364.0 L 673.4 366.4 L 665.0 369.6 L 657.0 373.7 L 649.7 378.9 L 643.3 385.4 L 638.0 392.9 L 634.3 401.0 L 632.3 410.7 L 631.7 421.9 L 631.7 432.7 L 632.1 440.9 L 633.2 447.6 L 635.5 455.2 L 639.4 463.6 L 644.5 471.5 L 650.3 478.7 L 657.2 485.4 L 666.3 492.4 L 673.8 497.4 L 679.9 500.3 L 688.0 503.8 L 696.7 507.0 L 705.4 509.7 L 714.2 512.3 L 722.9 514.9 L 731.6 517.5 L 740.1 520.0 L 749.8 523.0 L 760.5 526.2 L 768.9 528.7 L 775.8 530.8 L 784.4 533.4 L 793.1 536.1 L 801.8 539.0 L 811.1 543.0 L 819.7 548.0 L 826.4 553.7 L 831.4 560.4 L 835.0 568.8 L 835.7 578.7 L 833.5 588.5 L 829.3 597.4 L 825.5 605.9 L 823.6 614.0 L 823.4 622.6 L 825.9 631.1 L 830.2 639.7 L 836.5 647.0 L 843.5 652.8 L 850.5 657.6 L 857.9 661.8 L 866.4 666.0 L 874.7 669.8 L 882.9 673.5 L 891.6 677.6 L 899.7 681.8 L 908.2 686.9 L 916.3 692.7 L 921.8 698.5 L 924.8 706.2 L 925.8 716.0 L 924.0 724.6 L 920.7 732.3 L 917.0 739.5 L 913.2 745.6 L 908.6 752.7 L 903.1 760.3 L 897.5 767.0 L 890.4 773.6 L 883.1 779.1 L 875.6 783.1 L 866.0 786.2 L 856.9 787.6 L 849.2 787.4 L 840.6 786.2 L 831.9 784.6 L 821.5 781.6 L 809.5 777.0 L 800.8 773.0 L 795.6 770.1 L 789.5 766.4 L 782.0 761.6 L 774.5 756.3 L 767.3 750.9 L 759.9 744.9 L 751.2 737.3 L 744.6 731.3 L 740.1 726.9 L 733.9 720.7 L 727.4 713.7 L 719.5 704.5 L 713.1 696.6 L 709.4 691.4 L 704.5 684.0 L 698.9 675.2 L 694.2 667.2 L 689.5 659.4 L 684.5 651.0 L 679.2 642.3 L 673.9 633.6 L 668.8 625.1 L 664.6 618.2 L 660.5 612.2 L 655.4 605.3 L 650.1 598.5 L 642.8 590.9 L 634.2 582.9 L 628.3 577.8 L 622.6 573.9 L 614.6 568.8 L 606.5 564.4 L 598.3 560.4 L 589.9 556.6 L 581.5 553.0 L 573.0 549.6 L 564.5 546.2 L 556.0 543.1 L 547.3 540.2 L 538.6 537.7 L 529.9 535.8 L 521.1 534.6 L 509.2 534.8 L 499.6 535.7 L 493.7 537.1 L 485.6 539.7 L 476.6 542.9 L 468.1 546.3 L 459.8 549.9 L 451.1 553.8 L 442.1 557.8 L 434.0 561.5 L 426.6 564.9 L 417.6 568.9 L 407.0 573.5 L 398.6 577.0 L 391.7 579.6 L 381.4 582.9 L 370.5 585.8 L 361.6 587.8 L 353.3 589.6 L 344.7 591.4 L 336.6 593.0 L 329.4 594.4 L 320.9 595.9 L 311.1 597.6 L 301.5 599.1 L 291.3 600.1 L 281.6 599.8 L 274.1 596.3 L 270.7 588.5 L 268.1 579.4 L 261.2 575.2 L 252.1 576.9 L 244.4 581.0 L 237.5 585.7 L 230.6 590.6 L 223.5 595.6 L 216.1 600.8 L 207.5 606.6 L 200.2 611.6 L 194.1 615.9 L 187.4 620.5 Z" fill="none" stroke="#F0F0F0" stroke-width="10" stroke-linejoin="round" stroke-linecap="round"/>
<circle cx="43.9" cy="707.0" r="9" fill="#DC2626"/>
<circle cx="215.0" cy="471.6" r="9" fill="#16A34A"/>
<circle cx="273.4" cy="419.5" r="9" fill="#16A34A"/>
<circle cx="283.7" cy="418.2" r="9" fill="#16A34A"/>
<circle cx="761.1" cy="212.6" r="9" fill="#C9A84C"/>
<circle cx="787.3" cy="229.0" r="9" fill="#C9A84C"/>
<circle cx="874.7" cy="231.4" r="9" fill="#C9A84C"/>
<circle cx="959.7" cy="356.7" r="9" fill="#DC2626"/>
<circle cx="878.2" cy="312.1" r="9" fill="#C9A84C"/>
<circle cx="636.9" cy="394.8" r="9" fill="#16A34A"/>
<circle cx="651.8" cy="480.4" r="9" fill="#16A34A"/>
<circle cx="834.4" cy="566.5" r="9" fill="#C9A84C"/>
<circle cx="823.4" cy="622.6" r="9" fill="#C9A84C"/>
<circle cx="922.8" cy="700.0" r="9" fill="#C9A84C"/>
<circle cx="879.5" cy="781.3" r="9" fill="#16A34A"/>
<circle cx="628.3" cy="577.8" r="9" fill="#16A34A"/>
<circle cx="496.5" cy="536.3" r="9" fill="#16A34A"/>
<circle cx="274.1" cy="596.3" r="9" fill="#DC2626"/>
<circle cx="266.7" cy="577.8" r="9" fill="#DC2626"/>
<rect x="181.7" y="607.6" width="8" height="28" fill="#E10600"/>
</svg>